HIERARCHY
ROOT Hips
{
	OFFSET 0.00000 0.00000 0.00000
	CHANNELS 6 Xposition Yposition Zposition Zrotation Yrotation Xrotation 
	JOINT LHipJoint
	{
		OFFSET 0 0 0
		CHANNELS 3 Zrotation Yrotation Xrotation
		JOINT LeftHip
		{
			OFFSET 1.17584 -1.63585 1.00361
			CHANNELS 3 Zrotation Yrotation Xrotation
			JOINT LeftKnee
			{
				OFFSET 2.23889 -6.15131 0.00000
				CHANNELS 3 Zrotation Yrotation Xrotation
				JOINT LeftAnkle
				{
					OFFSET 2.65161 -7.28525 0.00000
					CHANNELS 3 Zrotation Yrotation Xrotation
					JOINT LeftToe
					{
						OFFSET 0.24898 -0.68407 1.57235
						CHANNELS 3 Zrotation Yrotation Xrotation
						End Site
						{
							OFFSET 0.00000 -0.00000 0.85838
						}
					}
				}
			}
		}
	}
	JOINT RHipJoint
	{
		OFFSET 0 0 0
		CHANNELS 3 Zrotation Yrotation Xrotation
		JOINT RightHip
		{
			OFFSET -1.15592 -1.63585 1.00361
			CHANNELS 3 Zrotation Yrotation Xrotation
			JOINT RightKnee
			{
				OFFSET -2.34071 -6.43104 0.00000
				CHANNELS 3 Zrotation Yrotation Xrotation
				JOINT RightAnkle
				{
					OFFSET -2.59113 -7.11908 0.00000
					CHANNELS 3 Zrotation Yrotation Xrotation
					JOINT RightToe
					{
						OFFSET -0.17867 -0.49089 1.70981
						CHANNELS 3 Zrotation Yrotation Xrotation
						End Site
						{
							OFFSET -0.00000 -0.00000 0.89861
						}
					}
				}
			}
		}
	}
	JOINT lowerback
	{
		OFFSET 0 0 0
		CHANNELS 3 Zrotation Yrotation Xrotation
		JOINT Chest
		{
			OFFSET -0.02255 1.90764 -0.16605
			CHANNELS 3 Zrotation Yrotation Xrotation
			JOINT Chest2
			{
				OFFSET -0.00365 1.92150 -0.04898
				CHANNELS 3 Zrotation Yrotation Xrotation
				JOINT lowerneck
				{
					OFFSET 0 0 0
					CHANNELS 3 Zrotation Yrotation Xrotation
					JOINT Neck
					{
						OFFSET 0.00372 1.59170 0.08694
						CHANNELS 3 Zrotation Yrotation Xrotation
						JOINT Head
						{
							OFFSET 0.12558 1.58643 -0.08078
							CHANNELS 3 Zrotation Yrotation Xrotation
							End Site
							{
								OFFSET 0.04211 1.60835 -0.03803
							}
						}
					}
				}
				JOINT LeftCollar
				{
					OFFSET 0 0 0
					CHANNELS 3 Zrotation Yrotation Xrotation
					JOINT LeftShoulder
					{
						OFFSET 3.69324 0.96316 0.19077
CHANNELS 3 Zrotation Xrotation Yrotation
						JOINT LeftElbow
						{
OFFSET 0 -4.877960 -0.000000
CHANNELS 3 Zrotation Xrotation Yrotation
							JOINT LeftWrist
							{
OFFSET 0 -3.231690 0.000000
CHANNELS 3 Zrotation Xrotation Yrotation
								JOINT lhand
								{
									OFFSET 0 0 0
CHANNELS 3 Zrotation Xrotation Yrotation
									JOINT LFingers
									{
OFFSET 0 -0.731320 0.000000
CHANNELS 3 Zrotation Xrotation Yrotation
										End Site
										{
OFFSET 0 -0.589610 0.000000
										}
									}
								}
								JOINT LThumb
								{
OFFSET 0 0.000000 0.000000
CHANNELS 3 Zrotation Xrotation Yrotation
									End Site
									{
OFFSET 0 -0.598610 0.598610
									}
								}
							}
						}
					}
				}
				JOINT RightCollar
				{
					OFFSET 0 0 0
					CHANNELS 3 Zrotation Yrotation Xrotation
					JOINT RightShoulder
					{
						OFFSET -3.66103 0.75145 0.08281
CHANNELS 3 Zrotation Xrotation Yrotation
						JOINT RightElbow
						{
OFFSET 0 -4.914300 0.000000
CHANNELS 3 Zrotation Xrotation Yrotation
							JOINT RightWrist
							{
OFFSET 0 -3.290930 0.000000
CHANNELS 3 Zrotation Xrotation Yrotation
								JOINT rhand
								{
									OFFSET 0 0 0
CHANNELS 3 Zrotation Xrotation Yrotation
									JOINT RFingers
									{
OFFSET 0 -0.545120 0.000000
CHANNELS 3 Zrotation Xrotation Yrotation
										End Site
										{
OFFSET 0 -0.439490 0.000000
										}
									}
								}
								JOINT RThumb
								{
OFFSET 0 0.000000 0.000000
CHANNELS 3 Zrotation Xrotation Yrotation
									End Site
									{
OFFSET 0 -0.446200 0.446200
									}
								}
							}
						}
					}
				}
			}
		}
	}
}
MOTION
Frames: 11
Frame Time: 0.008333333333333333
12.390700 16.324100 1.465700 145.315000 -88.707700 -146.421000 0.000000 0.000000 0.000000 -11.290400 -0.634600 -9.785300 2.890700 10.516000 30.664600 1.814200 7.732100 -29.215500 2.530200 -9.892500 -28.629500 0.000000 0.000000 0.000000 11.802600 8.031100 -12.768500 -5.562900 -13.990900 43.201000 -3.650400 -2.174500 -36.991400 -0.284000 -3.427100 9.470200 0.746400 1.228400 -9.490400 -2.653000 1.746100 3.409500 -2.951600 0.966900 9.081800 3.498500 -1.099300 -1.440900 2.855400 -2.942800 20.344200 0.122600 -1.203800 6.420500 -0.000000 0.000000 0.000000 10.308400 -5.189500 -36.440700 31.686100 -42.295500 12.529100 25.110600 5.041800 18.683700 0.000000 0.000000 0.000000 -7.125000 0.000000 0.000000 -1.981100 9.511000 -1.627500 -0.000000 0.000000 0.000000 -1.903200 -3.001300 34.664400 -32.189900 -42.698100 -12.869400 -32.298000 39.121000 31.174500 0.000000 0.000000 0.000000 7.125000 0.000000 -0.000000 -1.055500 65.570200 0.524500
12.416809 16.130778 1.465804 153.943282 -88.647537 -155.081245 0.000000 0.000000 0.000000 -10.818138 -1.556329 -12.506359 3.903772 12.031297 35.842645 2.232104 6.753158 -31.267308 2.617128 -10.047797 -29.131703 0.000000 0.000000 0.000000 12.080092 8.550215 -10.762738 -4.835829 -13.196525 40.108659 -3.665037 0.325722 -36.272540 -1.813464 -8.466107 24.139063 0.836178 1.232488 -9.354905 -2.609566 1.736135 3.421228 -2.959084 0.965675 9.015782 3.460322 -1.028562 -1.606527 2.822177 -2.847297 20.431943 0.121900 -1.158201 6.477153 0.000000 0.000000 0.000000 10.200739 -5.243993 -36.148547 31.786156 -42.376006 12.596455 25.017848 1.727299 28.028062 0.000000 0.000000 0.000000 -7.125000 0.000000 0.000000 -3.170910 -0.411268 -3.198472 0.000000 0.000000 0.000000 -1.836886 -2.995244 34.694022 -32.167926 -42.680610 -12.854551 -31.333740 38.099735 29.774907 0.000000 0.000000 0.000000 7.125000 0.000000 0.000000 -0.412351 63.794132 0.187887
12.420491 16.117691 1.466404 157.650224 -88.593125 -158.762297 0.000000 0.000000 0.000000 -10.725496 -1.551423 -12.685125 3.958087 12.104383 36.102238 2.234000 6.738715 -31.271090 2.627859 -10.066652 -29.192996 0.000000 0.000000 0.000000 12.165953 8.218550 -11.025903 -4.819826 -13.177931 40.038318 -3.509662 -0.865966 -35.842977 -1.247532 -7.081713 19.957645 0.757704 1.218216 -9.332560 -2.567212 1.723913 3.431365 -2.871600 0.953905 9.008665 3.467802 -0.995402 -1.392148 2.777731 -2.761622 20.156271 0.115212 -1.125294 6.350617 0.000000 0.000000 0.000000 10.213981 -5.316900 -36.053697 31.756728 -42.352381 12.576618 25.075694 1.594243 28.031821 0.000000 0.000000 0.000000 -7.125000 0.000000 0.000000 -3.137434 -0.427899 -3.165506 0.000000 0.000000 0.000000 -1.944836 -2.988633 34.847842 -32.249236 -42.745007 -12.909692 -31.034418 37.845363 30.060150 0.000000 0.000000 0.000000 7.125000 0.000000 0.000000 0.099952 64.016224 -0.046096
12.419711 16.118764 1.468306 156.396307 -88.574254 -157.485559 0.000000 0.000000 0.000000 -10.784643 -1.567778 -12.680823 3.953180 12.097839 36.079038 2.227339 6.795592 -31.262185 2.592750 -10.004659 -28.991708 0.000000 0.000000 0.000000 12.113179 8.240450 -11.041768 -4.823361 -13.182056 40.053929 -3.526506 -0.803028 -35.909416 -1.436454 -7.577723 21.438617 0.914738 1.355001 -9.299192 -2.848057 1.905763 3.378099 -3.230814 1.058371 8.959886 3.955868 -1.132491 -1.213860 2.796214 -2.976377 20.000894 0.029928 -1.200012 6.267091 0.000000 0.000000 0.000000 10.743928 -5.275234 -36.464489 31.751138 -42.347844 12.572831 24.903360 1.581932 27.926375 0.000000 0.000000 0.000000 -7.125000 0.000000 0.000000 -3.223478 -0.279780 -3.244319 0.000000 0.000000 0.000000 -1.559782 -2.824715 34.584546 -32.404411 -42.867234 -13.015095 -31.315227 37.902974 29.992357 0.000000 0.000000 0.000000 7.125000 0.000000 0.000000 -0.293350 64.022065 0.135158
12.420500 16.120285 1.469696 160.530871 -88.587555 -161.547982 0.000000 0.000000 0.000000 -10.676685 -1.637365 -12.772616 3.965178 12.113874 36.136008 2.246551 6.755705 -31.355857 2.577913 -9.978262 -28.906406 0.000000 0.000000 0.000000 12.185992 8.168383 -11.150649 -4.808818 -13.165126 39.989892 -3.486692 -0.819580 -35.710371 -1.309176 -7.247864 20.451934 1.190866 1.522394 -9.268737 -3.015382 2.106924 3.366164 -3.532834 1.176964 8.962053 4.151357 -1.214405 -1.690870 2.914864 -3.173802 20.317228 0.016443 -1.260034 6.451660 0.000000 0.000000 0.000000 11.038172 -5.431909 -36.886046 31.671125 -42.283380 12.519013 25.046853 1.310713 27.967625 0.000000 0.000000 0.000000 -7.125000 0.000000 0.000000 -3.145080 -0.354267 -3.169173 0.000000 0.000000 0.000000 -1.324316 -2.825646 34.238201 -32.442029 -42.896806 -13.040747 -31.213793 37.617930 29.979056 0.000000 0.000000 0.000000 7.125000 0.000000 0.000000 -0.168027 63.979547 0.077262
12.421182 16.119409 1.469136 159.637723 -88.606645 -160.680264 0.000000 0.000000 0.000000 -10.695622 -1.604827 -12.738652 3.959045 12.105727 36.107043 2.234735 6.788021 -31.302786 2.602742 -10.022347 -29.049143 0.000000 0.000000 0.000000 12.165567 8.127572 -11.126778 -4.813528 -13.170628 40.010619 -3.508683 -0.673958 -35.777539 -1.309732 -7.249334 20.456167 1.070298 1.459961 -9.184060 -2.972762 2.034288 3.347896 -3.432202 1.132389 8.880211 3.835125 -1.150933 -1.450581 3.169472 -3.085048 20.147042 0.159039 -1.228970 6.362776 0.000000 0.000000 0.000000 10.934208 -5.395456 -36.780024 31.678131 -42.289078 12.523751 24.988822 1.249086 27.844338 0.000000 0.000000 0.000000 -7.125000 0.000000 0.000000 -3.161312 -0.212496 -3.177847 0.000000 0.000000 0.000000 -1.491472 -2.843271 34.465265 -32.425660 -42.883941 -13.029631 -31.142012 37.597796 30.393719 0.000000 0.000000 0.000000 7.125000 0.000000 0.000000 0.114159 64.402923 -0.053674
12.425089 16.122506 1.469233 158.281239 -88.561272 -159.309404 0.000000 0.000000 0.000000 -10.744287 -1.599037 -12.760614 3.955983 12.101678 36.092428 2.242210 6.790870 -31.349213 2.605241 -10.026868 -29.063742 0.000000 0.000000 0.000000 12.115922 8.150053 -11.166197 -4.815283 -13.172683 40.018339 -3.475383 -0.819352 -35.652181 -1.335100 -7.316449 20.656380 0.894225 1.417559 -9.108604 -2.919697 1.993959 3.289915 -3.283050 1.099447 8.760697 3.775010 -1.093902 -1.252271 2.998225 -2.956334 20.091436 0.124387 -1.187444 6.307762 0.000000 0.000000 0.000000 10.729663 -5.374499 -36.567076 31.492164 -42.138515 12.398776 24.823359 1.335294 28.007863 0.000000 0.000000 0.000000 -7.125000 0.000000 0.000000 -3.282446 -0.347671 -3.307706 0.000000 0.000000 0.000000 -1.665381 -2.754612 34.665701 -32.509974 -42.950024 -13.086951 -31.085639 37.448752 30.241016 0.000000 0.000000 0.000000 7.125000 0.000000 0.000000 0.116389 64.223871 -0.054183
12.431608 16.124213 1.469400 153.989063 -88.629857 -154.977549 0.000000 0.000000 0.000000 -10.817886 -1.661552 -12.843511 3.952513 12.096913 36.075695 2.218802 6.814152 -31.220793 2.616445 -10.046618 -29.127884 0.000000 0.000000 0.000000 12.003512 8.005952 -11.269873 -4.818113 -13.176013 40.030839 -3.457444 -0.789985 -35.550457 -1.298001 -7.218165 20.363432 0.658801 1.256455 -9.132949 -2.854947 1.803380 3.352060 -3.112377 0.992249 8.818341 3.314319 -0.955363 -1.108913 3.295932 -2.766137 19.928502 0.308910 -1.111431 6.238774 0.000000 0.000000 0.000000 10.611737 -5.287491 -36.287996 31.665638 -42.278985 12.515267 24.662841 1.365670 27.913023 0.000000 0.000000 0.000000 -7.125000 0.000000 0.000000 -3.363121 -0.213801 -3.381541 0.000000 0.000000 0.000000 -1.835250 -2.998332 35.021150 -32.483873 -42.929588 -13.069224 -30.872650 37.432429 30.318943 0.000000 0.000000 0.000000 7.125000 0.000000 0.000000 0.428757 64.247244 -0.199941
12.434459 16.122785 1.469507 152.337952 -88.616581 -153.284584 0.000000 0.000000 0.000000 -10.862034 -1.664434 -12.902985 3.954871 12.100163 36.087075 2.227225 6.740731 -31.231048 2.586513 -9.993575 -28.956012 0.000000 0.000000 0.000000 11.911109 7.887815 -11.393563 -4.819573 -13.177681 40.037301 -3.449459 -0.676156 -35.473490 -1.247684 -7.082000 19.958523 0.758288 1.312532 -9.076467 -3.020152 1.874548 3.230283 -3.334026 1.034862 8.668087 3.375264 -1.013689 -0.713296 3.468507 -2.882181 19.958601 0.350132 -1.163095 6.183338 0.000000 0.000000 0.000000 10.886642 -5.022960 -36.477618 31.656082 -42.271263 12.508869 24.931896 1.197192 28.145358 0.000000 0.000000 0.000000 -7.125000 0.000000 0.000000 -3.238624 -0.515252 -3.272875 0.000000 0.000000 0.000000 -1.518078 -2.678364 34.895179 -32.559658 -42.988816 -13.120838 -31.387852 37.850241 30.410720 0.000000 0.000000 0.000000 7.125000 0.000000 0.000000 -0.199118 64.490627 0.093925
12.439091 16.126541 1.468683 154.848387 -88.649599 -155.758144 0.000000 0.000000 0.000000 -10.790768 -1.704890 -12.923184 3.944250 12.085892 36.036427 2.221042 6.784139 -31.217690 2.615216 -10.044398 -29.120661 0.000000 0.000000 0.000000 11.987390 8.039593 -11.370259 -4.823384 -13.182068 40.054046 -3.485037 -0.390932 -35.568126 -1.450303 -7.612550 21.543292 0.884703 1.373626 -9.022679 -3.059724 1.942329 3.176214 -3.437103 1.074884 8.589003 3.347076 -1.062055 -0.587225 3.603714 -2.966915 19.927744 0.394424 -1.200836 6.154701 0.000000 0.000000 0.000000 11.016628 -4.841292 -36.713055 31.749499 -42.346564 12.571780 25.197173 1.137219 27.743303 0.000000 0.000000 0.000000 -7.125000 0.000000 0.000000 -3.023767 -0.151927 -3.035968 0.000000 0.000000 0.000000 -1.398306 -2.531885 34.857991 -32.543993 -42.976582 -13.110198 -31.661865 38.022513 30.580891 0.000000 0.000000 0.000000 7.125000 0.000000 0.000000 -0.481014 64.750787 0.229805
12.440809 16.128754 1.469109 156.185511 -88.656599 -157.061960 0.000000 0.000000 0.000000 -10.763664 -1.719756 -12.966621 3.946910 12.089447 36.049205 2.216037 6.821942 -31.208259 2.615178 -10.044365 -29.120513 0.000000 0.000000 0.000000 11.996287 7.983750 -11.427618 -4.817481 -13.175353 40.028258 -3.481137 -0.300080 -35.520244 -1.529004 -7.807006 22.129491 0.949180 1.391695 -9.021018 -3.043257 1.958241 3.192997 -3.453443 1.086257 8.609161 3.389201 -1.089433 -0.561969 3.517161 -2.978789 19.824414 0.360193 -1.210226 6.115560 0.000000 0.000000 0.000000 10.996741 -4.846030 -36.680300 31.753589 -42.349860 12.574559 24.877542 1.305448 27.820638 0.000000 0.000000 0.000000 -7.125000 0.000000 0.000000 -3.223323 -0.163424 -3.237669 0.000000 0.000000 0.000000 -1.440997 -2.540657 34.895021 -32.507896 -42.948386 -13.085540 -31.197829 37.815186 30.446534 0.000000 0.000000 0.000000 7.125000 0.000000 0.000000 0.065952 64.475172 -0.031115
